<svg xmlns="http://www.w3.org/2000/svg" width="335.5mm" height="1145.125" viewBox="0 0 335.5 302.981">
  <path d="M167.222 9.29v.024a76.73 105.833 0 0 0-2.303.109h-2.462c-18.433.91-35.626 6.562-50.405 15.741H58.526c-12.808 0-23.068 10.831-23.068 23.867v148.06a24.35 24.35 0 0 0 2.796 11.353l-1.593 2.987L9 263.289v9.525c.969 11.79 10.852 21.167 22.86 21.167h271.78c12.008 0 21.891-9.377 22.86-21.167v-9.523c-9.218-17.287-18.44-34.573-27.66-51.86h-7.762 7.762l-1.592-2.987a24.353 24.353 0 0 0 2.795-11.354V49.03c0-13.035-10.26-23.866-23.067-23.866H223.448c-14.779-9.18-31.972-14.83-50.405-15.741h-1.753a105.833 105.833 0 0 0-2.327-.077 76.73 105.833 0 0 0-1.212-.057 76.73 105.833 0 0 0-.217.01 105.833 105.833 0 0 0-.312-.01zm41.05 233.89v.003zm.006 0 8.47 20.11z" style="color:#000;fill:#faa;stroke-width:18;-inkscape-stroke:none"/>
  <path d="M221.2 61.092c-67.584 0-121.198 57.106-121.198 124.222v559.593c0 14.137 3.086 27.486 7.426 40.275L0 986.604v45.902l.111 1.387c5.088 61.912 57.212 111.23 120.303 111.23h1027.203c63.091 0 115.215-49.318 120.303-111.23l.111-1.387V986.61l-4-7.5c-33.19-62.239-66.387-124.475-99.582-186.709-1.282-2.404-2.563-4.809-3.846-7.213 4.342-12.79 7.434-26.14 7.434-40.283v-559.6c0-67.116-53.614-124.214-121.197-124.214H221.199zm413.03 8.076c.803.035 1.604.073 2.407.12l.611.028.606.014c2.682.059 5.366.148 8.046.266l.746.029h6.024C716.328 72.826 775.54 92.297 826.58 124l8.246 5.123h212.014c29.228 0 53.166 24.765 53.166 56.184v559.6c0 7.208-1.665 13.866-4.024 20.18h-29.86v68.04h42.94c30.314 56.832 60.632 113.662 90.938 170.492v25.336c-2.537 26.903-24.93 48.137-52.383 48.137H120.414c-27.453 0-49.846-21.234-52.383-48.137v-25.344l90.938-170.484h.008l24.093-45.2-8.384-15.937c-4.242-8.066-6.653-17.236-6.653-27.084V185.315c0-31.42 23.938-56.192 53.166-56.192H433.207l8.244-5.121c51.039-31.703 110.252-51.174 173.91-54.375h9.11l1.144-.074a176.65 176.65 0 0 1 7.301-.348l.54-.014.774-.023zm101.723 815.92 17.2 40.844v27.203H764.616l23.237 55.18 62.695-26.405v-.008l-29.365-69.722v-27.092h-85.231z" style="color:#000;fill:#fff;stroke-width:3.77953;-inkscape-stroke:none" transform="scale(.26458)"/>
  <path fill="#ffb2ba" d="M29.021 285.116c-4.999-.715-9.188-5.37-10.647-11.835-.217-.963-.395-1.91-.395-2.107 0-.304 21.797-.356 149.785-.356 82.381 0 149.785.07 149.785.155 0 .78-.75 3.686-1.377 5.336-1.506 3.965-4.444 7.086-7.991 8.49-1.079.428-8.02.452-139.471.48-76.085.017-138.945-.057-139.689-.163z" style="display:inline;fill:#faa;fill-opacity:1"/>
  <path fill="#ffd7d1" d="m44.872 216.13-25.076 47.015h98.954l8.47-20.11.01.003v-.003h81.042v.003l.006-.003 8.47 20.11h98.957L290.63 216.13c-3.818 2.921-8.523 4.68-13.654 4.68H167.752v-4.516 4.516H58.526c-5.131 0-9.837-1.759-13.654-4.68zm88.672 36.431-4.457 10.584h77.324l-4.457-10.584z" style="display:inline"/>
  <path fill="#bcf3e9" d="m132.59 250.174-4.582 15.358h79.482l-4.582-15.358z" style="fill:#bfe;fill-opacity:1"/>
  <path fill="#ffd7d1" d="M72.5 25.02H263c20.521 0 37.042 16.52 37.042 37.041V183.77c0 20.52-16.521 37.041-37.042 37.041H72.5c-20.521 0-37.042-16.52-37.042-37.041V62.06c0-20.52 16.52-37.041 37.042-37.041z" style="display:inline"/>
  <path fill="#ffb2ba" d="M291.078 32.35 45.545 211.66h245.533Z" style="display:inline;fill:#faa;fill-opacity:1"/>
  <path fill="#ffe8b3" d="M55.25 46.186h225v153.458h-225z" style="display:inline;fill:#feb;fill-opacity:1;stroke-width:.983035"/>
  <path fill="#fff" d="M284.167 116.417A116.417 116.417 0 0 1 167.75 232.833 116.417 116.417 0 0 1 51.333 116.417 116.417 116.417 0 0 1 167.75 0a116.417 116.417 0 0 1 116.417 116.417Z"/>
  <path fill="#36e4dc" d="M167.222 9.145v202.141h43.859a105.833 105.833 0 0 0 61.974-96.308A105.833 105.833 0 0 0 167.222 9.145Z" style="display:inline;fill:#8de;fill-opacity:1"/>
  <path fill="#bcf3e9" d="M167.751 9.145a76.73 105.833 0 0 0-76.73 105.833 76.73 105.833 0 0 0 44.932 96.308h63.596a76.73 105.833 0 0 0 44.931-96.308A76.73 105.833 0 0 0 167.751 9.145Z" style="fill:#bfe;fill-opacity:1"/>
  <path fill="#ffb2ba" d="M30.007 232.949h276.63l-14.186-20.302-7.056 2.423-30.44 3.382-94.154-1.641-107.539.498-9.539-4.56-7.925 7.92z" style="fill:#faa;fill-opacity:1;stroke-width:.968564"/>
  <path d="M162.457 9.278c-54.363 2.685-98.002 46.506-100.421 100.938v9.524c1.809 40.712 26.683 75.478 61.85 91.546.096.044.188.097.284.14H58.525c-.465 0-.905-.093-1.357-.14h-.001c-6.905-.71-12.323-6.637-12.323-14.34V48.886c0-8.209 6.13-14.482 13.682-14.482H83.8a116.425 116.425 0 0 1 10.133-9.384H58.526c-12.808 0-23.068 10.83-23.068 23.866v148.06a24.35 24.35 0 0 0 2.796 11.353l-1.593 2.987L9 263.145v9.525c.969 11.79 10.852 21.166 22.86 21.166h271.78c12.008 0 21.891-9.376 22.86-21.166v-9.523c-9.218-17.287-18.44-34.574-27.66-51.86h-20.507c-.453.046-.893.14-1.358.14H211.33c.096-.044.188-.097.284-.14 35.167-16.069 60.04-50.835 61.85-91.547.107-1.693 0-9.524 0-9.524-2.419-54.432-46.058-98.253-100.421-100.938ZM149.37 20.439c-7.882 5.388-14.634 14.061-19.97 24.7a105.018 105.018 0 0 0-1.607 3.36c-8.261-1.746-15.902-4-22.692-6.672 12.413-10.638 27.563-18.167 44.269-21.388zm36.761 0c16.706 3.221 31.856 10.75 44.27 21.388-6.791 2.673-14.432 4.926-22.693 6.672a104.954 104.954 0 0 0-1.608-3.36c-5.335-10.639-12.087-19.312-19.969-24.7zm-23.673 3.807v28.216c-8.705-.221-17.107-.98-25.046-2.203.197-.407.387-.83.588-1.23 6.928-13.814 15.619-22.327 24.458-24.783zm10.586 0c8.839 2.457 17.529 10.97 24.457 24.784.2.4.391.822.588 1.23-7.94 1.223-16.34 1.98-25.045 2.202zm68.523.773a116.416 116.416 0 0 1 10.132 9.385h25.278c7.551 0 13.682 6.273 13.682 14.481v148.06c0 7.704-5.419 13.631-12.324 14.34h20.506l-1.592-2.986a24.353 24.353 0 0 0 2.795-11.353V48.886c0-13.036-10.26-23.867-23.067-23.867zM97.573 49.012c7.914 3.46 16.862 6.314 26.572 8.468-5.468 15.114-8.788 33.182-9.253 52.736h-43.33C72.71 86.55 82.388 65.163 97.573 49.012Zm140.353 0c15.185 16.15 24.862 37.539 26.011 61.203h-43.33c-.465-19.553-3.785-37.621-9.253-52.735 9.71-2.154 18.658-5.009 26.572-8.468zM133.56 59.308c9.137 1.523 18.828 2.447 28.896 2.687v48.22h-38.039c.484-19.114 3.859-36.69 9.143-50.907zm68.377 0c5.284 14.218 8.66 31.793 9.143 50.907h-38.038v-48.22c10.068-.24 19.758-1.164 28.895-2.687zM71.562 119.74h43.33c.465 19.554 3.785 37.622 9.253 52.736-9.71 2.154-18.657 5.009-26.57 8.468-15.186-16.15-24.864-37.539-26.013-61.203Zm52.856 0h38.04v48.22c-10.069.24-19.76 1.165-28.897 2.688-5.284-14.218-8.659-31.793-9.143-50.908zm48.625 0h38.038c-.484 19.115-3.86 36.69-9.143 50.908-9.136-1.523-18.827-2.447-28.895-2.687zm47.564 0h43.33c-1.149 23.665-10.827 45.053-26.012 61.204-7.914-3.46-16.862-6.314-26.571-8.468 5.468-15.114 8.788-33.182 9.253-52.736zm-58.15 57.754v28.216c-8.84-2.455-17.53-10.968-24.458-24.783-.2-.4-.391-.822-.588-1.23 7.94-1.224 16.341-1.982 25.046-2.203zm10.586 0c8.704.221 17.106.979 25.045 2.203-.197.408-.387.83-.588 1.23-6.928 13.815-15.618 22.327-24.457 24.783zm-45.25 3.963a104.983 104.983 0 0 0 1.607 3.36c5.335 10.639 12.087 19.312 19.969 24.7-16.706-3.221-31.855-10.75-44.268-21.387 6.79-2.673 14.43-4.926 22.692-6.673zm79.913 0c8.261 1.747 15.902 4 22.692 6.673-12.413 10.638-27.562 18.166-44.268 21.387 7.882-5.388 14.634-14.061 19.97-24.7.549-1.096 1.083-2.218 1.606-3.36zM44.872 216.13c3.817 2.922 8.523 4.681 13.654 4.681h218.449c5.131 0 9.837-1.759 13.654-4.68l25.076 47.014h-98.958l-8.47-20.11-.005.003v-.003h-81.043v.003l-.009-.003-8.47 20.11H19.796Zm88.672 36.431h68.41l4.457 10.584h-77.324ZM19.52 272.67h296.46c-.888 6.163-5.973 10.741-12.34 10.741H31.86c-6.367 0-11.452-4.578-12.34-10.741z" style="fill:#058;fill-opacity:1;stroke-width:1;-inkscape-stroke:none"/>
</svg>
